<svg xmlns="http://www.w3.org/2000/svg" xmlns:xlink="http://www.w3.org/1999/xlink" viewBox="0 0 41 39.753"><path fill="#FF7F2A" d="M.588 13.689L3.056 3.681 13.215.561l7.66 6.898-2.468 10.007-10.159 3.12z"/><path fill="#FF4A07" d="M13.091 1.122l7.226 6.508-2.329 9.442-9.617 2.953-7.227-6.508 2.329-9.442 9.618-2.953M13.339 0l-10.7 3.286L.031 13.86l8.093 7.288 10.701-3.286 2.608-10.574L13.339 0z"/><defs><path id="a" d="M8.123 21.147L.031 13.86 2.639 3.286 13.339 0l8.093 7.288-2.608 10.573z"/></defs><clipPath id="b"><use xlink:href="#a" overflow="visible"/></clipPath><g clip-path="url(#b)" fill="#FF9F5F"><path d="M13.309.18C5.13 2.723 3.994 7.379 8.228 20.997L2.774 3.456 13.309.18z"/><path d="M8.252 20.873l-11.314 3.552-5.462-17.394L2.79 3.478z"/></g><path fill="#FF4A07" d="M13.091 1.122l7.226 6.508-2.329 9.442-9.617 2.953-7.227-6.508 2.329-9.442 9.618-2.953M13.339 0l-10.7 3.286L.031 13.86l8.093 7.288 10.701-3.286 2.608-10.574L13.339 0z"/><path fill="#FF7F2A" d="M6.354 32.294l2.468-10.009 10.159-3.119 7.66 6.898-2.469 10.008-10.158 3.12z"/><path fill="#FF4A07" d="M18.857 19.727l7.227 6.508-2.329 9.442-9.617 2.953-7.227-6.508L9.24 22.68l9.617-2.953m.248-1.122L8.404 21.891 5.797 32.465l8.093 7.288 10.701-3.286 2.608-10.574-8.094-7.288z"/><defs><path id="c" d="M13.889 39.753l-8.092-7.288 2.607-10.574 10.701-3.286 8.093 7.288-2.608 10.574z"/></defs><clipPath id="d"><use xlink:href="#c" overflow="visible"/></clipPath><g clip-path="url(#d)" fill="#FF9F5F"><path d="M19.075 18.785c-8.18 2.543-9.316 7.199-5.081 20.818L8.54 22.061l10.535-3.276z"/><path d="M14.017 39.479L2.703 43.032-2.76 25.637l11.314-3.552z"/></g><path fill="#FF4A07" d="M18.857 19.727l7.227 6.508-2.329 9.442-9.617 2.953-7.227-6.508L9.24 22.68l9.617-2.953m.248-1.122L8.404 21.891 5.797 32.465l8.093 7.288 10.701-3.286 2.608-10.574-8.094-7.288z"/><path fill="#FF7F2A" d="M20.15 17.867L22.619 7.86l10.158-3.121 7.66 6.898-2.468 10.009-10.159 3.118z"/><path fill="#FF4A07" d="M32.653 5.301l7.227 6.508-2.329 9.442-9.617 2.953-7.227-6.508 2.329-9.442 9.617-2.953m.249-1.123L22.201 7.464l-2.608 10.574 8.093 7.288 10.701-3.286 2.608-10.574-8.093-7.288z"/><defs><path id="e" d="M27.686 25.326l-8.093-7.288 2.608-10.574 10.701-3.286 8.092 7.288-2.608 10.574z"/></defs><clipPath id="f"><use xlink:href="#e" overflow="visible"/></clipPath><g clip-path="url(#f)" fill="#FF9F5F"><path d="M32.872 4.358c-8.18 2.543-9.316 7.199-5.081 20.818L22.336 7.634l10.536-3.276z"/><path d="M27.814 25.052l-11.313 3.553-5.462-17.394 11.313-3.553z"/></g><path fill="#FF4A07" d="M32.653 5.301l7.227 6.508-2.329 9.442-9.617 2.953-7.227-6.508 2.329-9.442 9.617-2.953m.249-1.123L22.201 7.464l-2.608 10.574 8.093 7.288 10.701-3.286 2.608-10.574-8.093-7.288z"/></svg>